<?xml version="1.0" encoding="UTF-8" standalone="no"?>
<!DOCTYPE svg PUBLIC "-//W3C//DTD SVG 1.1//EN"
 "http://www.w3.org/Graphics/SVG/1.1/DTD/svg11.dtd">
<!-- Generated by graphviz version 2.42.4 (0)
 -->
<!-- Title: G Pages: 1 -->
<svg width="1925pt" height="1197pt"
 viewBox="0.00 0.00 1925.00 1196.50" xmlns="http://www.w3.org/2000/svg" xmlns:xlink="http://www.w3.org/1999/xlink">
<g id="graph0" class="graph" transform="scale(1 1) rotate(0) translate(18 1178.5)">
<title>G</title>
<polygon fill="white" stroke="transparent" points="-18,18 -18,-1178.5 1907,-1178.5 1907,18 -18,18"/>
<!-- product_models -->
<g id="node1" class="node">
<title>product_models</title>
<polygon fill="#2f5597" stroke="transparent" points="1,-350.5 1,-377.5 175,-377.5 175,-350.5 1,-350.5"/>
<text text-anchor="start" x="35" y="-361.3" font-family="Arial" font-weight="bold" font-size="14.00" fill="white">product_models</text>
<text text-anchor="start" x="7" y="-333.3" font-family="Arial" font-size="14.00">PK model_id</text>
<text text-anchor="start" x="7" y="-306.3" font-family="Arial" font-size="14.00">model_code, model_name</text>
<text text-anchor="start" x="7" y="-279.3" font-family="Arial" font-size="14.00">image_url, is_active</text>
<polygon fill="none" stroke="#2f5597" points="0,-268.5 0,-378.5 176,-378.5 176,-268.5 0,-268.5"/>
</g>
<!-- bom_versions -->
<g id="node2" class="node">
<title>bom_versions</title>
<polygon fill="#2f5597" stroke="transparent" points="243.5,-450.5 243.5,-477.5 388.5,-477.5 388.5,-450.5 243.5,-450.5"/>
<text text-anchor="start" x="269.5" y="-461.3" font-family="Arial" font-weight="bold" font-size="14.00" fill="white">bom_versions</text>
<text text-anchor="start" x="249.5" y="-433.3" font-family="Arial" font-size="14.00">PK bom_version_id</text>
<text text-anchor="start" x="249.5" y="-406.3" font-family="Arial" font-size="14.00">FK model_id</text>
<text text-anchor="start" x="249.5" y="-379.3" font-family="Arial" font-size="14.00">version_no, is_current</text>
<text text-anchor="start" x="249.5" y="-352.3" font-family="Arial" font-size="14.00">effective_from/to</text>
<polygon fill="none" stroke="#2f5597" points="242,-342 242,-479 389,-479 389,-342 242,-342"/>
</g>
<!-- product_models&#45;&gt;bom_versions -->
<g id="edge1" class="edge">
<title>product_models&#45;&gt;bom_versions</title>
<path fill="none" stroke="#555555" d="M176.18,-357.14C195.25,-364.49 215.34,-372.24 234.12,-379.49"/>
<polygon fill="#555555" stroke="#555555" points="233.33,-382.19 241.8,-382.45 235.35,-376.96 233.33,-382.19"/>
<text text-anchor="middle" x="209" y="-375.5" font-family="Arial" font-size="10.00">1:N</text>
</g>
<!-- product_units -->
<g id="node7" class="node">
<title>product_units</title>
<polygon fill="#c55a11" stroke="transparent" points="494.5,-698.5 494.5,-725.5 687.5,-725.5 687.5,-698.5 494.5,-698.5"/>
<text text-anchor="start" x="545.5" y="-709.3" font-family="Arial" font-weight="bold" font-size="14.00" fill="white">product_units</text>
<text text-anchor="start" x="500.5" y="-681.3" font-family="Arial" font-size="14.00">PK product_unit_id</text>
<text text-anchor="start" x="500.5" y="-654.3" font-family="Arial" font-size="14.00">FK model_id, bom_version_id</text>
<text text-anchor="start" x="500.5" y="-627.3" font-family="Arial" font-size="14.00">FK receipt_id</text>
<text text-anchor="start" x="500.5" y="-600.3" font-family="Arial" font-size="14.00">serial_no / IMEI UNIQUE</text>
<text text-anchor="start" x="500.5" y="-573.3" font-family="Arial" font-size="14.00">qr_value UNIQUE</text>
<text text-anchor="start" x="500.5" y="-546.3" font-family="Arial" font-size="14.00">current_status</text>
<polygon fill="none" stroke="#c55a11" points="493,-536 493,-727 688,-727 688,-536 493,-536"/>
</g>
<!-- product_models&#45;&gt;product_units -->
<g id="edge2" class="edge">
<title>product_models&#45;&gt;product_units</title>
<path fill="none" stroke="#555555" d="M176.31,-296.63C239.34,-282.5 324.37,-274.67 389,-310.5 472.06,-356.55 525.24,-452.93 555.81,-528.12"/>
<polygon fill="#555555" stroke="#555555" points="553.3,-529.4 558.88,-535.79 558.5,-527.32 553.3,-529.4"/>
<text text-anchor="middle" x="315.5" y="-313.5" font-family="Arial" font-size="10.00">1:N</text>
</g>
<!-- bom_items -->
<g id="node4" class="node">
<title>bom_items</title>
<polygon fill="#2f5597" stroke="transparent" points="1032.5,-395.5 1032.5,-422.5 1225.5,-422.5 1225.5,-395.5 1032.5,-395.5"/>
<text text-anchor="start" x="1092.5" y="-406.3" font-family="Arial" font-weight="bold" font-size="14.00" fill="white">bom_items</text>
<text text-anchor="start" x="1038.5" y="-378.3" font-family="Arial" font-size="14.00">PK bom_item_id</text>
<text text-anchor="start" x="1038.5" y="-351.3" font-family="Arial" font-size="14.00">FK bom_version_id, model_id</text>
<text text-anchor="start" x="1038.5" y="-324.3" font-family="Arial" font-size="14.00">FK part_id</text>
<text text-anchor="start" x="1038.5" y="-297.3" font-family="Arial" font-size="14.00">default_qty, sort_order</text>
<text text-anchor="start" x="1038.5" y="-270.3" font-family="Arial" font-size="14.00">is_required</text>
<polygon fill="none" stroke="#2f5597" points="1031,-259.5 1031,-423.5 1226,-423.5 1226,-259.5 1031,-259.5"/>
</g>
<!-- bom_versions&#45;&gt;bom_items -->
<g id="edge3" class="edge">
<title>bom_versions&#45;&gt;bom_items</title>
<path fill="none" stroke="#555555" d="M389.18,-404.32C533.23,-392.06 855.41,-364.65 1022.49,-350.43"/>
<polygon fill="#555555" stroke="#555555" points="1023.09,-353.19 1030.82,-349.73 1022.61,-347.61 1023.09,-353.19"/>
<text text-anchor="middle" x="721" y="-379.5" font-family="Arial" font-size="10.00">1:N</text>
</g>
<!-- bom_versions&#45;&gt;product_units -->
<g id="edge4" class="edge">
<title>bom_versions&#45;&gt;product_units</title>
<path fill="none" stroke="#555555" d="M389.3,-469.43C419.06,-493.53 454.04,-521.84 486.35,-548"/>
<polygon fill="#555555" stroke="#555555" points="484.8,-550.35 492.78,-553.2 488.32,-545.99 484.8,-550.35"/>
<text text-anchor="middle" x="441" y="-531.5" font-family="Arial" font-size="10.00">1:N / locked</text>
</g>
<!-- parts -->
<g id="node3" class="node">
<title>parts</title>
<polygon fill="#70ad47" stroke="transparent" points="764.5,-225.5 764.5,-252.5 909.5,-252.5 909.5,-225.5 764.5,-225.5"/>
<text text-anchor="start" x="820" y="-236.3" font-family="Arial" font-weight="bold" font-size="14.00" fill="white">parts</text>
<text text-anchor="start" x="770.5" y="-208.3" font-family="Arial" font-size="14.00">PK part_id</text>
<text text-anchor="start" x="770.5" y="-181.3" font-family="Arial" font-size="14.00">part_code, part_name</text>
<text text-anchor="start" x="770.5" y="-154.3" font-family="Arial" font-size="14.00">unit, image_url</text>
<polygon fill="none" stroke="#70ad47" points="763,-143.5 763,-253.5 910,-253.5 910,-143.5 763,-143.5"/>
</g>
<!-- parts&#45;&gt;bom_items -->
<g id="edge5" class="edge">
<title>parts&#45;&gt;bom_items</title>
<path fill="none" stroke="#555555" d="M910.3,-234.4C944.52,-251.27 985.93,-271.69 1023.38,-290.16"/>
<polygon fill="#555555" stroke="#555555" points="1022.4,-292.79 1030.81,-293.82 1024.87,-287.77 1022.4,-292.79"/>
<text text-anchor="middle" x="959" y="-269.5" font-family="Arial" font-size="10.00">1:N</text>
</g>
<!-- part_qr_codes -->
<g id="node5" class="node">
<title>part_qr_codes</title>
<polygon fill="#70ad47" stroke="transparent" points="1068.5,-108.5 1068.5,-135.5 1189.5,-135.5 1189.5,-108.5 1068.5,-108.5"/>
<text text-anchor="start" x="1082" y="-119.3" font-family="Arial" font-weight="bold" font-size="14.00" fill="white">part_qr_codes</text>
<text text-anchor="start" x="1074.5" y="-91.3" font-family="Arial" font-size="14.00">PK part_qr_id</text>
<text text-anchor="start" x="1074.5" y="-64.3" font-family="Arial" font-size="14.00">FK part_id</text>
<text text-anchor="start" x="1074.5" y="-37.3" font-family="Arial" font-size="14.00">qr_value UNIQUE</text>
<text text-anchor="start" x="1074.5" y="-10.3" font-family="Arial" font-size="14.00">location_code</text>
<polygon fill="none" stroke="#70ad47" points="1067,0 1067,-137 1190,-137 1190,0 1067,0"/>
</g>
<!-- parts&#45;&gt;part_qr_codes -->
<g id="edge6" class="edge">
<title>parts&#45;&gt;part_qr_codes</title>
<path fill="none" stroke="#555555" d="M910.3,-165.86C956.08,-145.34 1014.74,-119.05 1059.55,-98.96"/>
<polygon fill="#555555" stroke="#555555" points="1060.75,-101.49 1066.91,-95.66 1058.46,-96.38 1060.75,-101.49"/>
<text text-anchor="middle" x="959" y="-152.5" font-family="Arial" font-size="10.00">1:N</text>
</g>
<!-- part_stock_movements -->
<g id="node12" class="node">
<title>part_stock_movements</title>
<polygon fill="#70ad47" stroke="transparent" points="1682,-571.5 1682,-598.5 1888,-598.5 1888,-571.5 1682,-571.5"/>
<text text-anchor="start" x="1708.5" y="-582.3" font-family="Arial" font-weight="bold" font-size="14.00" fill="white">part_stock_movements</text>
<text text-anchor="start" x="1688" y="-554.3" font-family="Arial" font-size="14.00">PK movement_id</text>
<text text-anchor="start" x="1688" y="-527.3" font-family="Arial" font-size="14.00">FK part_id</text>
<text text-anchor="start" x="1688" y="-500.3" font-family="Arial" font-size="14.00">FK product_unit_id nullable</text>
<text text-anchor="start" x="1688" y="-473.3" font-family="Arial" font-size="14.00">FK operation_id / check_item_id</text>
<text text-anchor="start" x="1688" y="-446.3" font-family="Arial" font-size="14.00">movement_type</text>
<text text-anchor="start" x="1688" y="-419.3" font-family="Arial" font-size="14.00">qty_delta</text>
<polygon fill="none" stroke="#70ad47" points="1681,-409 1681,-600 1889,-600 1889,-409 1681,-409"/>
</g>
<!-- parts&#45;&gt;part_stock_movements -->
<g id="edge7" class="edge">
<title>parts&#45;&gt;part_stock_movements</title>
<path fill="none" stroke="#555555" d="M910.16,-189.44C1050.88,-175.4 1366.48,-161.33 1591,-281.5 1643.28,-309.48 1687.75,-357.78 1720.79,-402.29"/>
<polygon fill="#555555" stroke="#555555" points="1718.59,-404.03 1725.58,-408.82 1723.11,-400.72 1718.59,-404.03"/>
<text text-anchor="middle" x="1322.5" y="-207.5" font-family="Arial" font-size="10.00">1:N</text>
</g>
<!-- operation_check_items -->
<g id="node11" class="node">
<title>operation_check_items</title>
<polygon fill="#7030a0" stroke="transparent" points="1408,-437.5 1408,-464.5 1571,-464.5 1571,-437.5 1408,-437.5"/>
<text text-anchor="start" x="1414" y="-448.3" font-family="Arial" font-weight="bold" font-size="14.00" fill="white">operation_check_items</text>
<text text-anchor="start" x="1414" y="-420.3" font-family="Arial" font-size="14.00">PK check_item_id</text>
<text text-anchor="start" x="1414" y="-393.3" font-family="Arial" font-size="14.00">FK operation_id</text>
<text text-anchor="start" x="1414" y="-366.3" font-family="Arial" font-size="14.00">FK bom_item_id, part_id</text>
<text text-anchor="start" x="1414" y="-339.3" font-family="Arial" font-size="14.00">check_status</text>
<text text-anchor="start" x="1414" y="-312.3" font-family="Arial" font-size="14.00">qty_used</text>
<polygon fill="none" stroke="#7030a0" points="1406.5,-301.5 1406.5,-465.5 1571.5,-465.5 1571.5,-301.5 1406.5,-301.5"/>
</g>
<!-- bom_items&#45;&gt;operation_check_items -->
<g id="edge14" class="edge">
<title>bom_items&#45;&gt;operation_check_items</title>
<path fill="none" stroke="#555555" d="M1226.04,-352.81C1279.7,-359.1 1346.02,-366.87 1398.5,-373.01"/>
<polygon fill="#555555" stroke="#555555" points="1398.2,-375.8 1406.47,-373.95 1398.85,-370.24 1398.2,-375.8"/>
<text text-anchor="middle" x="1322.5" y="-372.5" font-family="Arial" font-size="10.00">1:N</text>
</g>
<!-- product_receipts -->
<g id="node6" class="node">
<title>product_receipts</title>
<polygon fill="#8064a2" stroke="transparent" points="254.5,-658.5 254.5,-685.5 376.5,-685.5 376.5,-658.5 254.5,-658.5"/>
<text text-anchor="start" x="260.5" y="-669.3" font-family="Arial" font-weight="bold" font-size="14.00" fill="white">product_receipts</text>
<text text-anchor="start" x="260.5" y="-641.3" font-family="Arial" font-size="14.00">PK receipt_id</text>
<text text-anchor="start" x="260.5" y="-614.3" font-family="Arial" font-size="14.00">supplier_name</text>
<text text-anchor="start" x="260.5" y="-587.3" font-family="Arial" font-size="14.00">received_date</text>
<polygon fill="none" stroke="#8064a2" points="253.5,-576.5 253.5,-686.5 377.5,-686.5 377.5,-576.5 253.5,-576.5"/>
</g>
<!-- product_receipts&#45;&gt;product_units -->
<g id="edge8" class="edge">
<title>product_receipts&#45;&gt;product_units</title>
<path fill="none" stroke="#555555" d="M377.77,-631.5C409.26,-631.5 448.53,-631.5 484.66,-631.5"/>
<polygon fill="#555555" stroke="#555555" points="484.8,-634.3 492.8,-631.5 484.8,-628.7 484.8,-634.3"/>
<text text-anchor="middle" x="441" y="-634.5" font-family="Arial" font-size="10.00">1:N</text>
</g>
<!-- status_history -->
<g id="node8" class="node">
<title>status_history</title>
<polygon fill="#c55a11" stroke="transparent" points="755.5,-858.5 755.5,-885.5 918.5,-885.5 918.5,-858.5 755.5,-858.5"/>
<text text-anchor="start" x="761.5" y="-869.3" font-family="Arial" font-weight="bold" font-size="14.00" fill="white">product_status_history</text>
<text text-anchor="start" x="761.5" y="-841.3" font-family="Arial" font-size="14.00">PK status_history_id</text>
<text text-anchor="start" x="761.5" y="-814.3" font-family="Arial" font-size="14.00">FK product_unit_id</text>
<text text-anchor="start" x="761.5" y="-787.3" font-family="Arial" font-size="14.00">from_status, to_status</text>
<text text-anchor="start" x="761.5" y="-760.3" font-family="Arial" font-size="14.00">ref_type, ref_id</text>
<polygon fill="none" stroke="#c55a11" points="754,-750 754,-887 919,-887 919,-750 754,-750"/>
</g>
<!-- product_units&#45;&gt;status_history -->
<g id="edge9" class="edge">
<title>product_units&#45;&gt;status_history</title>
<path fill="none" stroke="#555555" d="M688.29,-705.68C707.77,-720.61 728.15,-736.23 747.33,-750.92"/>
<polygon fill="#555555" stroke="#555555" points="745.72,-753.22 753.78,-755.87 749.13,-748.78 745.72,-753.22"/>
<text text-anchor="middle" x="721" y="-738.5" font-family="Arial" font-size="10.00">1:N</text>
</g>
<!-- service_cases -->
<g id="node9" class="node">
<title>service_cases</title>
<polygon fill="#7030a0" stroke="transparent" points="769.5,-598.5 769.5,-625.5 904.5,-625.5 904.5,-598.5 769.5,-598.5"/>
<text text-anchor="start" x="791" y="-609.3" font-family="Arial" font-weight="bold" font-size="14.00" fill="white">service_cases</text>
<text text-anchor="start" x="775.5" y="-581.3" font-family="Arial" font-size="14.00">PK service_case_id</text>
<text text-anchor="start" x="775.5" y="-554.3" font-family="Arial" font-size="14.00">FK product_unit_id</text>
<text text-anchor="start" x="775.5" y="-527.3" font-family="Arial" font-size="14.00">service_no UNIQUE</text>
<text text-anchor="start" x="775.5" y="-500.3" font-family="Arial" font-size="14.00">service_status</text>
<polygon fill="none" stroke="#7030a0" points="768,-490 768,-627 905,-627 905,-490 768,-490"/>
</g>
<!-- product_units&#45;&gt;service_cases -->
<g id="edge11" class="edge">
<title>product_units&#45;&gt;service_cases</title>
<path fill="none" stroke="#555555" d="M688.29,-602.54C712.09,-595.42 737.23,-587.9 759.87,-581.13"/>
<polygon fill="#555555" stroke="#555555" points="760.91,-583.74 767.77,-578.76 759.3,-578.37 760.91,-583.74"/>
<text text-anchor="middle" x="721" y="-598.5" font-family="Arial" font-size="10.00">1:N</text>
</g>
<!-- product_operations -->
<g id="node10" class="node">
<title>product_operations</title>
<polygon fill="#7030a0" stroke="transparent" points="1000.5,-599.5 1000.5,-626.5 1257.5,-626.5 1257.5,-599.5 1000.5,-599.5"/>
<text text-anchor="start" x="1065.5" y="-610.3" font-family="Arial" font-weight="bold" font-size="14.00" fill="white">product_operations</text>
<text text-anchor="start" x="1006.5" y="-582.3" font-family="Arial" font-size="14.00">PK operation_id</text>
<text text-anchor="start" x="1006.5" y="-555.3" font-family="Arial" font-size="14.00">FK product_unit_id, bom_version_id</text>
<text text-anchor="start" x="1006.5" y="-528.3" font-family="Arial" font-size="14.00">FK service_case_id nullable</text>
<text text-anchor="start" x="1006.5" y="-501.3" font-family="Arial" font-size="14.00">operation_type: MANUFACTURING / AS</text>
<text text-anchor="start" x="1006.5" y="-474.3" font-family="Arial" font-size="14.00">operation_status</text>
<polygon fill="none" stroke="#7030a0" points="999,-463.5 999,-627.5 1258,-627.5 1258,-463.5 999,-463.5"/>
</g>
<!-- product_units&#45;&gt;product_operations -->
<g id="edge10" class="edge">
<title>product_units&#45;&gt;product_operations</title>
<path fill="none" stroke="#555555" d="M656.46,-535.76C682.78,-505.14 715.99,-474.94 754,-458.5 829.32,-425.91 918.69,-444.87 991.13,-473.3"/>
<polygon fill="#555555" stroke="#555555" points="990.51,-476.07 998.98,-476.44 992.59,-470.87 990.51,-476.07"/>
<text text-anchor="middle" x="836.5" y="-461.5" font-family="Arial" font-size="10.00">1:N</text>
</g>
<!-- product_units&#45;&gt;part_stock_movements -->
<g id="edge17" class="edge">
<title>product_units&#45;&gt;part_stock_movements</title>
<path fill="none" stroke="#555555" d="M620.05,-727.04C654.54,-820.38 722.47,-948.5 835.5,-948.5 835.5,-948.5 835.5,-948.5 1490,-948.5 1652.43,-948.5 1730.39,-739.36 1763.31,-608.16"/>
<polygon fill="#555555" stroke="#555555" points="1766.12,-608.46 1765.32,-600.02 1760.68,-607.12 1766.12,-608.46"/>
<text text-anchor="middle" x="1128.5" y="-951.5" font-family="Arial" font-size="10.00">1:N</text>
</g>
<!-- finished_products -->
<g id="node13" class="node">
<title>finished_products</title>
<polygon fill="#c55a11" stroke="transparent" points="1388,-716.5 1388,-743.5 1590,-743.5 1590,-716.5 1388,-716.5"/>
<text text-anchor="start" x="1430" y="-727.3" font-family="Arial" font-weight="bold" font-size="14.00" fill="white">finished_products</text>
<text text-anchor="start" x="1394" y="-699.3" font-family="Arial" font-size="14.00">PK finished_id</text>
<text text-anchor="start" x="1394" y="-672.3" font-family="Arial" font-size="14.00">FK product_unit_id UNIQUE</text>
<text text-anchor="start" x="1394" y="-645.3" font-family="Arial" font-size="14.00">FK manufacturing_operation_id</text>
<text text-anchor="start" x="1394" y="-618.3" font-family="Arial" font-size="14.00">finished_at</text>
<polygon fill="none" stroke="#c55a11" points="1387,-608 1387,-745 1591,-745 1591,-608 1387,-608"/>
</g>
<!-- product_units&#45;&gt;finished_products -->
<g id="edge19" class="edge">
<title>product_units&#45;&gt;finished_products</title>
<path fill="none" stroke="#555555" d="M688.09,-641.95C709.76,-644.03 732.65,-646.03 754,-647.5 975.64,-662.78 1235.53,-670.69 1378.97,-674.19"/>
<polygon fill="#555555" stroke="#555555" points="1378.91,-676.99 1386.98,-674.38 1379.05,-671.39 1378.91,-676.99"/>
<text text-anchor="middle" x="959" y="-662.5" font-family="Arial" font-size="10.00">1:1</text>
</g>
<!-- shipment_items -->
<g id="node16" class="node">
<title>shipment_items</title>
<polygon fill="#5b9bd5" stroke="transparent" points="765.5,-1118.5 765.5,-1145.5 907.5,-1145.5 907.5,-1118.5 765.5,-1118.5"/>
<text text-anchor="start" x="784" y="-1129.3" font-family="Arial" font-weight="bold" font-size="14.00" fill="white">shipment_items</text>
<text text-anchor="start" x="771.5" y="-1101.3" font-family="Arial" font-size="14.00">PK shipment_item_id</text>
<text text-anchor="start" x="771.5" y="-1074.3" font-family="Arial" font-size="14.00">FK shipment_id</text>
<text text-anchor="start" x="771.5" y="-1047.3" font-family="Arial" font-size="14.00">FK product_unit_id</text>
<text text-anchor="start" x="771.5" y="-1020.3" font-family="Arial" font-size="14.00">item_status</text>
<polygon fill="none" stroke="#5b9bd5" points="764.5,-1010 764.5,-1147 908.5,-1147 908.5,-1010 764.5,-1010"/>
</g>
<!-- product_units&#45;&gt;shipment_items -->
<g id="edge22" class="edge">
<title>product_units&#45;&gt;shipment_items</title>
<path fill="none" stroke="#555555" d="M611.08,-727.25C629.15,-799.75 661.18,-899.35 713,-974.5 725.41,-992.5 741.71,-1009.23 758.34,-1023.77"/>
<polygon fill="#555555" stroke="#555555" points="756.58,-1025.95 764.48,-1029.03 760.23,-1021.7 756.58,-1025.95"/>
<text text-anchor="middle" x="721" y="-994.5" font-family="Arial" font-size="10.00">1:N</text>
</g>
<!-- service_cases&#45;&gt;product_operations -->
<g id="edge12" class="edge">
<title>service_cases&#45;&gt;product_operations</title>
<path fill="none" stroke="#555555" d="M905.13,-555.47C930.67,-554.32 960.76,-552.97 990.4,-551.65"/>
<polygon fill="#555555" stroke="#555555" points="990.87,-554.43 998.74,-551.27 990.62,-548.83 990.87,-554.43"/>
<text text-anchor="middle" x="959" y="-557.5" font-family="Arial" font-size="10.00">1:1 AS</text>
</g>
<!-- product_operations&#45;&gt;operation_check_items -->
<g id="edge13" class="edge">
<title>product_operations&#45;&gt;operation_check_items</title>
<path fill="none" stroke="#555555" d="M1258.17,-487.36C1304.77,-466.3 1356.35,-442.99 1398.81,-423.8"/>
<polygon fill="#555555" stroke="#555555" points="1400.22,-426.24 1406.36,-420.39 1397.91,-421.14 1400.22,-426.24"/>
<text text-anchor="middle" x="1322.5" y="-477.5" font-family="Arial" font-size="10.00">1:N</text>
</g>
<!-- product_operations&#45;&gt;part_stock_movements -->
<g id="edge16" class="edge">
<title>product_operations&#45;&gt;part_stock_movements</title>
<path fill="none" stroke="#555555" d="M1258.03,-537.45C1378.82,-529.88 1557.74,-518.67 1672.61,-511.48"/>
<polygon fill="#555555" stroke="#555555" points="1672.96,-514.26 1680.77,-510.97 1672.61,-508.67 1672.96,-514.26"/>
<text text-anchor="middle" x="1489" y="-532.5" font-family="Arial" font-size="10.00">1:N</text>
</g>
<!-- product_operations&#45;&gt;finished_products -->
<g id="edge18" class="edge">
<title>product_operations&#45;&gt;finished_products</title>
<path fill="none" stroke="#555555" d="M1258.17,-592.52C1297.8,-607 1341.02,-622.79 1379.18,-636.74"/>
<polygon fill="#555555" stroke="#555555" points="1378.27,-639.39 1386.75,-639.5 1380.19,-634.13 1378.27,-639.39"/>
<text text-anchor="middle" x="1322.5" y="-633.5" font-family="Arial" font-size="10.00">1:1 manufacturing</text>
</g>
<!-- operation_check_items&#45;&gt;part_stock_movements -->
<g id="edge15" class="edge">
<title>operation_check_items&#45;&gt;part_stock_movements</title>
<path fill="none" stroke="#555555" d="M1571.5,-417.04C1602.94,-429.98 1639.41,-444.99 1673.16,-458.88"/>
<polygon fill="#555555" stroke="#555555" points="1672.31,-461.56 1680.77,-462.01 1674.44,-456.38 1672.31,-461.56"/>
<text text-anchor="middle" x="1636" y="-454.5" font-family="Arial" font-size="10.00">1:N delta</text>
</g>
<!-- destinations -->
<g id="node14" class="node">
<title>destinations</title>
<polygon fill="#5b9bd5" stroke="transparent" points="246.5,-1105.5 246.5,-1132.5 385.5,-1132.5 385.5,-1105.5 246.5,-1105.5"/>
<text text-anchor="start" x="276" y="-1116.3" font-family="Arial" font-weight="bold" font-size="14.00" fill="white">destinations</text>
<text text-anchor="start" x="252.5" y="-1088.3" font-family="Arial" font-size="14.00">PK destination_id</text>
<text text-anchor="start" x="252.5" y="-1061.3" font-family="Arial" font-size="14.00">destination_name</text>
<text text-anchor="start" x="252.5" y="-1034.3" font-family="Arial" font-size="14.00">country, city, address</text>
<polygon fill="none" stroke="#5b9bd5" points="245,-1023.5 245,-1133.5 386,-1133.5 386,-1023.5 245,-1023.5"/>
</g>
<!-- shipments -->
<g id="node15" class="node">
<title>shipments</title>
<polygon fill="#5b9bd5" stroke="transparent" points="520.5,-1132.5 520.5,-1159.5 660.5,-1159.5 660.5,-1132.5 520.5,-1132.5"/>
<text text-anchor="start" x="556" y="-1143.3" font-family="Arial" font-weight="bold" font-size="14.00" fill="white">shipments</text>
<text text-anchor="start" x="526.5" y="-1115.3" font-family="Arial" font-size="14.00">PK shipment_id</text>
<text text-anchor="start" x="526.5" y="-1088.3" font-family="Arial" font-size="14.00">FK destination_id</text>
<text text-anchor="start" x="526.5" y="-1061.3" font-family="Arial" font-size="14.00">shipment_type</text>
<text text-anchor="start" x="526.5" y="-1034.3" font-family="Arial" font-size="14.00">shipping_method</text>
<text text-anchor="start" x="526.5" y="-1007.3" font-family="Arial" font-size="14.00">shipping_date, status</text>
<polygon fill="none" stroke="#5b9bd5" points="519.5,-996.5 519.5,-1160.5 661.5,-1160.5 661.5,-996.5 519.5,-996.5"/>
</g>
<!-- destinations&#45;&gt;shipments -->
<g id="edge20" class="edge">
<title>destinations&#45;&gt;shipments</title>
<path fill="none" stroke="#555555" d="M386.1,-1078.5C424.15,-1078.5 471.41,-1078.5 510.8,-1078.5"/>
<polygon fill="#555555" stroke="#555555" points="511.08,-1081.3 519.08,-1078.5 511.08,-1075.7 511.08,-1081.3"/>
<text text-anchor="middle" x="441" y="-1081.5" font-family="Arial" font-size="10.00">1:N</text>
</g>
<!-- shipments&#45;&gt;shipment_items -->
<g id="edge21" class="edge">
<title>shipments&#45;&gt;shipment_items</title>
<path fill="none" stroke="#555555" d="M661.75,-1078.5C691.34,-1078.5 725.93,-1078.5 756.41,-1078.5"/>
<polygon fill="#555555" stroke="#555555" points="756.48,-1081.3 764.48,-1078.5 756.48,-1075.7 756.48,-1081.3"/>
<text text-anchor="middle" x="721" y="-1081.5" font-family="Arial" font-size="10.00">1:N</text>
</g>
</g>
</svg>
